<svg xmlns="http://www.w3.org/2000/svg" viewBox="0 0 176.5 177.5"><path d="M797 1815c-101-41-146-73-147-102 0-29 24-21 74 24 87 80 157 93 356 64 179-26 240-53 285-123 34-53 65-63 65-23 0 34-78 117-135 145-46 22-266 60-344 60-31-1-82-16-154-45z" style="fill:red" transform="matrix(.1 0 0 -.1 -17.7 186)"/><path d="M514 1758c45-143 45-141 105-185 32-24 61-43 64-43 4 0-6 34-21 76-25 71-31 79-89 121-35 24-61 38-59 31zM1535 1723c-54-40-62-52-83-111-12-37-21-70-19-75 1-4 29 12 62 36 56 41 62 48 83 116 13 40 22 74 20 75-1 2-30-17-63-41z" style="fill:#00f" transform="matrix(.1 0 0 -.1 -17.7 186)"/><path d="M1587 1613c-16-15-5-32 27-43 49-16 108-70 140-129 29-53 75-278 76-367 0-54-24-120-59-164-15-19-26-41-24-47 16-46 94 42 119 133 15 58 16 75 5 142-7 42-17 106-22 142-22 153-80 257-171 310-52 29-78 36-91 23zM475 1546c-27-13-67-41-87-62-39-41-144-238-174-327-35-101-18-228 39-302 14-18 17-18 31-5 14 14 12 21-15 75-29 55-30 66-26 135 5 68 12 88 81 226 60 122 84 158 117 184 41 33 98 59 132 60 12 0 17 6 15 18-5 26-56 26-113-2zM707 1500c-43-34-41-58 13-223 27-85 50-156 50-159 0-4-57-48-127-99-71-51-133-100-140-108-22-29-16-85 13-112 25-23 31-24 198-27l172-3 49-155c52-166 70-194 126-194 53 0 75 34 127 195l48 150 169 5c209 6 225 13 225 96 0 42-7 50-159 159-74 53-120 93-117 101 3 7 26 79 51 159 49 155 51 180 13 215-42 39-75 28-217-75-72-52-136-95-142-95s-28 13-48 29-78 58-130 95c-101 71-131 79-174 46zm194-106c65-47 119-89 119-93 0-7-192-151-211-159-8-3-99 274-99 301 0 20 40 49 58 42 8-3 68-44 133-91zm507 47c5-34-87-302-101-294-45 27-202 146-202 154 0 9 194 154 235 176 30 15 63-2 68-36zm-218-257 118-86-47-142-48-141H907l-45 143c-44 139-45 143-26 156 10 8 62 46 114 84 52 39 101 71 108 71 8 1 67-38 132-85zM824 953c21-65 41-124 43-130 4-10-31-13-156-13-160 0-161 0-177 25-9 14-14 32-10 40 5 14 243 195 256 195 3 0 23-53 44-117zm650 25c123-88 142-114 111-148-17-18-32-20-175-20h-157l40 130c27 85 45 129 53 126 7-3 64-42 128-88zm-279-220c-41-135-90-276-98-285-14-19-65-16-76 5-5 9-29 79-54 155l-45 137h139c106 0 137-3 134-12z" style="fill:red" transform="matrix(.1 0 0 -.1 -17.7 186)"/><path d="M982 1150c-96-59-96-200 0-261 26-16 45-19 91-16 51 3 62 8 94 40s37 43 40 94c3 46 0 65-16 91-29 45-77 72-131 72-27 0-58-8-78-20z" style="fill:red" transform="matrix(.1 0 0 -.1 -17.7 186)"/><path d="m236 777-59-42 78-3c75-3 79-2 132 35 30 20 57 41 59 45 3 4-30 8-73 8-75-1-80-2-137-43zM1666 812c5-5 32-25 60-45 50-35 55-37 134-37h82l-61 45c-61 45-62 45-143 45-45 0-78-4-72-8z" style="fill:#00f" transform="matrix(.1 0 0 -.1 -17.7 186)"/><path d="M379 719c-18-34-5-132 25-193 35-72 231-262 308-300 67-33 144-46 206-35 53 10 67 21 59 44-5 12-13 14-34 8-56-16-136-8-196 20-68 31-266 218-300 282-13 25-23 68-26 114-6 78-21 99-42 60zM1755 653c-17-133-75-193-294-303-111-56-130-63-185-63-39 0-75 6-98 17-20 10-42 15-47 11-23-14-9-37 36-57 38-17 60-20 122-16 70 4 86 10 211 74 164 84 255 165 284 251 21 63 18 126-6 131-13 3-18-7-23-45z" style="fill:red" transform="matrix(.1 0 0 -.1 -17.7 186)"/><path d="m1031 310-23-78 24-73 25-74 25 76 26 76-23 72c-13 40-25 74-27 76s-14-32-27-75z" style="fill:#00f" transform="matrix(.1 0 0 -.1 -17.7 186)"/><path style="fill:#ff0;stroke-width:.75211865" d="M103.427 64.002c-5.243-3.937-9.708-7.442-9.923-7.79-.216-.349 3.912-3.866 9.173-7.816 10.778-8.092 14.265-10.332 16.093-10.336 2.081-.005 3.627 2.186 3.617 5.128-.01 2.886-5.654 20.611-8.049 25.28l-1.38 2.69zM61.62 67.202c-3.108-8.364-7.667-23.146-7.667-24.86 0-2.134 2.145-4.285 4.274-4.285 2.243 0 25.059 16.408 25.059 18.02 0 .621-18.955 15.073-19.769 15.073-.237 0-1.09-1.776-1.897-3.948zM108.106 104.68c0-1.499 7.694-23.77 8.352-24.177.418-.258 2.18.458 3.913 1.591 6.586 4.305 19.74 14.553 20.676 16.109 1.165 1.936.578 4.255-1.335 5.28-1.631.873-31.606 2.008-31.606 1.197zM73.249 103.68c-.897-1.454-8.01-25.264-7.985-26.73.02-1.13 1.283-2.552 3.948-4.441 2.156-1.528 6.966-4.99 10.69-7.694 3.722-2.704 7.38-4.923 8.126-4.931 1.425-.016 6.173 3.024 17.446 11.167 3.722 2.69 6.888 4.976 7.035 5.08.146.105-1.828 6.473-4.387 14.151l-4.654 13.962H88.533c-8.215 0-15.092-.254-15.284-.564zm21.531-5.714c1.331-.558 3.644-2.37 5.14-4.028 2.174-2.41 2.825-3.855 3.243-7.196.725-5.806-.048-8.984-3.037-12.476-6.879-8.036-20.494-6.775-25.245 2.338-3.054 5.857-1.713 14.602 2.874 18.75 3.982 3.602 11.797 4.8 17.025 2.612zM42.125 104.477c-3.75-.244-4.91-.63-5.829-1.94-2.053-2.933-1.344-4.126 5.812-9.772 8.074-6.373 17.502-13.341 18.048-13.341.556 0 8.495 23.914 8.072 24.313-.545.513-20.763 1.086-26.103.74zM85.622 138.906c-.577-.365-3.2-7.044-5.828-14.843l-4.78-14.178 12.893-.207c7.09-.113 13.065-.033 13.277.179.51.51-7.918 25.873-9.32 28.044-1.136 1.761-4.255 2.264-6.242 1.005z"/></svg>